<svg version="1.2" xmlns="http://www.w3.org/2000/svg" viewBox="0 0 428 36" width="428" height="36">
	<title>slider</title>
	<style>
		.s0 { fill: #dcdcdc } 
		.s1 { fill: #ffffff;stroke: #cdcdcd } 
		.s2 { fill: #68b738 } 
	</style>
	<path fill-rule="evenodd" class="s0" d="m3 15h422c1.7 0 3 1.3 3 3 0 1.7-1.3 3-3 3h-422c-1.7 0-3-1.3-3-3 0-1.7 1.3-3 3-3z"/>
	<g>
		<path fill-rule="evenodd" class="s1" d="m214 34.5c-9.1 0-16.5-7.4-16.5-16.5 0-9.1 7.4-16.5 16.5-16.5 9.1 0 16.5 7.4 16.5 16.5 0 9.1-7.4 16.5-16.5 16.5z"/>
		<path fill-rule="evenodd" class="s2" d="m214 22c-2.2 0-4-1.8-4-4 0-2.2 1.8-4 4-4 2.2 0 4 1.8 4 4 0 2.2-1.8 4-4 4z"/>
	</g>
</svg>